<svg width="64" height="64" viewBox="0 0 64 64" fill="none" xmlns="http://www.w3.org/2000/svg">
<path d="M39.4828 62.6394C30.8242 64.0844 21.6345 61.5074 14.8301 56.0028C8.36185 50.7701 4.32942 42.569 4.61826 34.2042C4.89826 26.1041 9.03018 18.0121 15.9132 13.5793C22.9487 9.04872 32.5877 9.07038 39.5799 13.6828C46.1219 17.9984 49.738 26.405 47.5284 34.0541C46.3859 38.0103 43.8602 41.6559 40.2658 43.7476C36.5247 45.925 31.7926 46.3695 27.7377 44.8234C24.092 43.433 20.9839 40.4525 19.8341 36.6768C18.6547 32.8049 19.6392 28.3201 22.5034 25.4229C25.273 22.6213 29.7226 21.6176 33.3218 23.3634C36.7389 25.0202 38.845 29.0983 37.5797 32.7945C36.8977 34.7866 35.2859 36.4939 33.2288 37.0603C31.0705 37.6549 28.5962 36.883 27.2603 35.0602C25.9534 33.2775 26.0609 30.6451 27.7393 29.132C28.585 28.3698 29.8245 27.9855 30.9357 28.3176C31.2647 28.4155 32.7273 28.7718 32.5869 29.2876C32.6567 28.7645 31.511 28.6297 31.1788 28.5383C30.1439 28.2527 28.9861 28.5415 28.195 29.2636C26.7998 30.536 26.5944 32.841 27.7161 34.3502C28.8529 35.8794 31.0071 36.5332 32.8091 35.9315C34.644 35.3177 35.9181 33.5142 36.215 31.644C36.8135 27.8708 33.1566 24.6166 29.5373 24.7691C25.7071 24.9303 22.6791 28.2775 22.2274 31.9665C21.3802 38.8832 29.2878 43.5903 35.4383 42.0242C42.2949 40.2776 45.7561 32.0981 44.076 25.6051C42.1986 18.3482 34.5357 13.8401 27.3261 13.9372C19.4755 14.0423 12.6598 19.7378 9.71134 26.7828C6.4716 34.5243 7.95107 43.7676 13.0819 50.3417C18.2849 57.008 26.665 60.8623 35.0267 61.3044C39.6529 61.5491 44.4531 60.8735 48.6693 58.8926C52.6447 57.0249 55.8155 53.8718 58.2778 50.2807C63.3348 42.9043 65.2274 33.4821 63.2 24.7482C59.7179 9.75554 44.6401 -1.20874 29.303 0.107041C14.242 1.39875 1.39697 14.2773 0.11086 29.3326C-0.625664 37.9493 2.33889 46.7907 8.07623 53.2549C13.755 59.654 22.0557 63.5845 30.598 63.968C35.5065 64.1887 40.4688 63.2652 44.9618 61.2731C42.9785 61.9502 40.9558 62.633 38.8466 62.7477C39.2525 62.7252 39.6344 62.5504 40.0436 62.5536C38.6075 62.5423 37.2636 63.1761 35.8379 63.2516C36.6675 63.2074 37.5251 63.0341 38.321 62.7975C38.5914 62.7164 39.4908 62.3337 39.7291 62.6033C39.563 62.4148 38.6396 62.7493 38.435 62.7983C37.692 62.9756 36.8681 63.1609 36.1067 63.2074C36.4484 63.1866 39.746 62.637 39.7411 62.6017C39.7476 62.6538 36.5142 63.0887 36.0401 63.2187C36.6129 63.0614 37.2475 63.0221 37.8332 62.9242C38.0675 62.8857 39.5694 62.4501 39.7379 62.6017C39.7123 62.5784 39.5125 62.6346 39.4828 62.6394C41.4806 62.3265 30.9012 64.0715 39.4828 62.6394Z" fill="#344E23"/>
<path d="M39.4828 62.6394C30.8242 64.0844 21.6345 61.5074 14.8301 56.0028C8.36185 50.7701 4.32942 42.569 4.61826 34.2042C4.89826 26.1041 9.03018 18.0121 15.9132 13.5793C22.9487 9.04872 32.5877 9.07038 39.5799 13.6828C46.1219 17.9984 49.738 26.405 47.5284 34.0541C46.3859 38.0103 43.8602 41.6559 40.2658 43.7476C36.5247 45.925 31.7926 46.3695 27.7377 44.8234C24.092 43.433 20.9839 40.4525 19.8341 36.6768C18.6547 32.8049 19.6392 28.3201 22.5034 25.4229C25.273 22.6213 29.7226 21.6176 33.3218 23.3634C36.7389 25.0202 38.845 29.0983 37.5797 32.7945C36.8977 34.7866 35.2859 36.4939 33.2288 37.0603C31.0705 37.6549 28.5962 36.883 27.2603 35.0602C25.9534 33.2775 26.0609 30.6451 27.7393 29.132C28.585 28.3698 29.8245 27.9855 30.9357 28.3176C31.2647 28.4155 32.7273 28.7718 32.5869 29.2876C32.6567 28.7645 31.511 28.6297 31.1788 28.5383C30.1439 28.2527 28.9861 28.5415 28.195 29.2636C26.7998 30.536 26.5944 32.841 27.7161 34.3502C28.8529 35.8794 31.0071 36.5332 32.8091 35.9315C34.644 35.3177 35.9181 33.5142 36.215 31.644C36.8135 27.8708 33.1566 24.6166 29.5373 24.7691C25.7071 24.9303 22.6791 28.2775 22.2274 31.9665C21.3802 38.8832 29.2878 43.5903 35.4383 42.0242C42.2949 40.2776 45.7561 32.0981 44.076 25.6051C42.1986 18.3482 34.5357 13.8401 27.3261 13.9372C19.4755 14.0423 12.6598 19.7378 9.71134 26.7828C6.4716 34.5243 7.95107 43.7676 13.0819 50.3417C18.2849 57.008 26.665 60.8623 35.0267 61.3044C39.6529 61.5491 44.4531 60.8735 48.6693 58.8926C52.6447 57.0249 55.8155 53.8718 58.2778 50.2807C63.3348 42.9043 65.2274 33.4821 63.2 24.7482C59.7179 9.75554 44.6401 -1.20874 29.303 0.107041C14.242 1.39875 1.39697 14.2773 0.11086 29.3326C-0.625664 37.9493 2.33889 46.7907 8.07623 53.2549C13.755 59.654 22.0557 63.5845 30.598 63.968C35.5065 64.1887 40.4688 63.2652 44.9618 61.2731C42.9785 61.9502 40.9558 62.633 38.8466 62.7477C39.2525 62.7252 39.6344 62.5504 40.0436 62.5536C38.6075 62.5423 37.2636 63.1761 35.8379 63.2516C36.6675 63.2074 37.5251 63.0341 38.321 62.7975C38.5914 62.7164 39.4908 62.3337 39.7291 62.6033C39.563 62.4148 38.6396 62.7493 38.435 62.7983C37.692 62.9756 36.8681 63.1609 36.1067 63.2074C36.4484 63.1866 39.746 62.637 39.7411 62.6017C39.7476 62.6538 36.5142 63.0887 36.0401 63.2187C36.6129 63.0614 37.2475 63.0221 37.8332 62.9242C38.0675 62.8857 39.5694 62.4501 39.7379 62.6017C39.7123 62.5784 39.5125 62.6346 39.4828 62.6394C41.4806 62.3265 30.9012 64.0715 39.4828 62.6394Z" fill="black" fill-opacity="0.2"/>
</svg>
